<?xml version="1.0" encoding="UTF-8"?>
<svg viewBox="0 0 640 480" xmlns="http://www.w3.org/2000/svg">
 <g stroke-dasharray="null" stroke-linecap="null" stroke-linejoin="null">
  <g stroke="#000" stroke-width="5">
   <ellipse cx="513.89" cy="288.23"/>
   <ellipse cx="505.89" cy="320.2"/>
   <ellipse cx="265.13" cy="395.12" fill="#7f3f00"/>
  </g>
  <g fill="#b7600e" stroke-width="0">
   <ellipse cx="115.28" cy="406.11"/>
   <ellipse cx="66.334" cy="393.13"/>
  </g>
  <ellipse cx="50.35" cy="389.13" fill="#c96910" stroke-width="5"/>
  <g stroke-width="0">
   <g fill="#b7600e">
    <ellipse cx="216.18" cy="357.16"/>
    <ellipse cx="285.11" cy="456.06"/>
   </g>
   <g fill="#c96910">
    <ellipse cx="218.18" cy="456.06"/>
    <ellipse cx="222.18" cy="456.06"/>
    <ellipse cx="43.357" cy="386.13"/>
    <ellipse cx="49.351" cy="386.13"/>
   </g>
   <g fill="#b7600e">
    <ellipse cx="285.11" cy="450.07"/>
    <ellipse cx="470.93" cy="434.09" ry=".999"/>
   </g>
  </g>
 </g>
 <g fill="#fff">
  <g stroke="#000" stroke-width="5">
   <g stroke-dasharray="null" stroke-linecap="null" stroke-linejoin="null">
    <path d="m531.81 291.43s16.858 1.7248 16.244 0.827c-0.61218-0.896 9.8089 6.0721 14.407 4.3474 4.5977-1.7248 10.726-8.6256 13.179-18.146 2.453-9.5199-5.5181-14.627-10.728-17.248-5.2098-2.6208-7.0491-14.625-7.6628-15.523-0.61206-0.89607 14.407 2.6225 6.7438-12.9-7.6627-15.523-12.26-8.6239-12.874-9.5216-0.61212-0.89607-11.648 0.89601-13.793-3.4496-2.1446-4.3456 11.342-6.0013 3.6788-16.35-7.6628-10.349-16.858-1.7248-17.472-2.6225-0.61206-0.89607-7.0491 16.421-7.6627 15.523-0.61212-0.89607 2.1446 2.6208-6.1302 13.798-8.2749 11.177 12.874 11.246 12.26 10.349-0.61206-0.89603 15.939 7.7969 15.939 7.7969s-0.001587 8.6221-2.1462 14.625c-2.1446 6.003-11.647 6.0721-12.26 5.1743-0.61206-0.89606-2.4514 12.971-3.0651 12.073-0.61212-0.896 11.342 11.246 11.342 11.246z"/>
    <path d="m501.16 415.3s23.912 3.8456 23.228 2.8448c-0.68225-0.99899 17.764-8.6134 17.764-8.6134s5.124-15.383 3.416-21.151c-1.708-5.7684-6.8337-19.23-10.932-20.229-4.0982-0.99899-14.688 8.6923-15.372 7.6914-0.68219-0.99896-14.688-6.6906-15.372-7.6914-0.68216-0.99899 2.3919 27.921 2.3919 27.921l-5.124 19.228z"/>
    <path d="m539.48 351.8c0.69635 0.4838 18.391 10.349 18.391 10.349l15.326-12.074 4.5975-25.872s-1.5325-13.798-3.6782-18.145c-2.1457-4.3464-10.115-7.727-10.728-8.6239-0.6131-0.89685-11.647-0.82788-12.26-1.7248-0.61304-0.89685-14.712 9.5207-15.326 8.6239-0.61322-0.89688-2.452 18.145-3.0652 17.248-0.6131-0.89682 15.939 11.246 15.326 10.349"/>
    <path d="m46.94 272.24c-12.273 5.1795 1.5341-25.898-10.739-20.718-12.273 5.1795 9.2045-17.265 9.2045-17.265s0-6.906-12.273-12.086c-12.273-5.1795 13.807-13.812 13.807-13.812v-24.171c0-5.1795 26.08 1.7265 26.08 1.7265s1.5341-13.812 3.0682-25.898 18.409-3.453 18.409-3.453-1.5341-20.718-1.5341-25.898c0-5.1795 9.2045-3.453 19.943 0 10.739 3.453 19.943-10.359 24.545-15.538 4.6022-5.1795 13.807 0 15.341 5.1795 1.5341 5.1795-7.6704 15.538-7.6704 15.538s10.739 10.359 4.6022 18.992c-6.1363 8.6325-35.284 34.53-35.284 34.53l-35.284 32.804s-16.875 24.171-16.875 24.171-3.0682 20.718-15.341 25.898z"/>
    <path d="m134.39 109.95l-6.1364-24.171s15.341-15.538 15.341-15.538 12.273-12.086 15.341-6.906c3.0682 5.1795 15.341 18.992 21.477 17.265 6.1363-1.7265 9.2045-6.906 10.739-15.538 1.5341-8.6325 9.2045 0 13.807-8.6325 4.6023-8.6325 12.273 10.359 15.341 10.359 3.0682 0 12.273-10.359 12.273-10.359s6.1363-17.265 10.739-17.265c4.6022 0 12.273 8.6325 15.341 8.6325 3.0682 0 19.943-6.906 15.341-6.906-4.6023 0 13.807 6.906 13.807 10.359s-7.6704 22.444-7.6704 22.444l-10.739 10.359s-13.807-3.453-18.409-3.453c-4.6023 0 4.6022 17.265-1.5341 17.265s-18.409-1.7265-18.409-1.7265l-12.273 6.906-30.682 3.453-23.011 3.453-12.273 6.906-18.409-6.906z"/>
    <path d="m151.26 153.12s-7.6704-17.265-6.1363-20.718 6.1363-12.086 6.1363-12.086 19.943-6.906 19.943-6.906 19.943-6.906 19.943-6.906l16.875-3.453 12.273 3.453-4.6023 13.812v12.086l-30.682 10.359-19.943 8.6325s-13.807 1.7265-13.807 1.7265z"/>
    <path d="m333.57 84.379c1.7426-3.3236 4.7778-15.196 4.4993-15.667-0.2785-0.47157 6.8744-6.7977 9.9338-6.5589 3.0593 0.23879 10.943 9.503 10.943 9.503s5.9594 3.0599 5.6809 2.5884c-0.27847-0.4715 10.305-12.584 10.305-12.584s9.6003-6.1697 13.425-5.8712c3.8249 0.29855 9.4126 9.3836 9.4126 9.3836s10.623 14.668 11.928 13.455c1.3034-1.2128 11.91-1.2151 15.456-1.3882 3.5458-0.17308 11.167 10.835 9.3066 11.105-1.8619 0.27-5.16 13.886-1.614 13.712 3.546-0.1732 16.446 0.002945 16.168-0.46867-0.27841-0.47171 10.145-10.001 16.378-3.9102 6.2336 6.0909 7.897 14.039 7.6185 13.568-0.27841-0.47172 1.0118 13.502 0.73328 13.03-0.2785-0.47171 15.734-0.91612 18.568-2.0102 2.8337-1.0924 16.128 5.1692 15.743 6.419-0.38458 1.2499 1.0648 12.641 1.0648 12.641s-4.5656 11.753-4.8441 11.281c-0.2785-0.47162 14.544 5.9093 14.438 7.6308-0.10608 1.7214 6.5124 6.5621 3.241 9.7662-3.2715 3.2042-6.543 6.4085-6.8214 5.9368-0.2785-0.47172-10.036 5.7204-10.314 5.2504-0.2785-0.47172-9.2932-6.3309-9.5717-6.8026-0.2785-0.47171-10.428-0.36398-10.707-0.83571-0.27841-0.47171-9.4524-3.7474-9.7308-4.2191-0.27853-0.47162 3.3682-12.26 3.0897-12.732-0.2785-0.47172-4.2261-13.718-4.5046-14.19-0.2785-0.47172-9.0585 2.3372-9.337 1.8655-0.2785-0.47166-7.1887 9.4022-7.4674 8.9322-0.27844-0.47171-0.30496 9.9395-5.1716 9.1097-4.8682-0.82991-10.771-7.3099-11.049-7.7816-0.27856-0.47162-12.51-3.986-12.789-4.4578-0.2785-0.47166-10.218-3.8071-10.496-4.2789-0.27841-0.4716-12.193-9.1515-12.472-9.6232-0.2785-0.47168 0.91501-9.8573 0.63654-10.329-0.2785-0.47162 6.5562-1.6342 6.8744-6.7978 0.31833-5.1654-4.0578-8.9647-4.3362-9.4365-0.27847-0.47161-9.1871-8.0515-9.1871-8.0515s-12.502 3.349-12.781 2.8773c-0.2785-0.47172-10.239-15.918-10.517-16.388-0.27844-0.47175-9.4297 8.362-9.7082 7.8904-0.27847-0.47172-7.0296 6.8204-7.3081 6.3487-0.27844-0.47172-12.671-1.4044-12.949-1.8761-0.2785-0.47167-5.2036-10.335-5.4821-10.807-0.27841-0.47171-8.0281-1.9056-6.2855-5.2291z"/>
    <path d="m425.22 168.25c0.57379 0.30217 4.6007-18.969 0-25.872-4.6007-6.9026-19.923-13.798-20.537-14.696-0.61212-0.89607-23.14-9.4543-29.118-8.6239-5.9783 0.83048-13.179 16.421-13.793 15.523-0.61209-0.89603 0.61056 14.694 3.0651 13.798 2.4545-0.89603 29.732 9.5216 29.732 9.5216l30.651 10.349z"/>
    <path d="m413.26 174.72c-8.1767-1.1498-2.5589-39.098 7.6628-27.596s12.771-16.682 16.246 0.82695c3.4747 17.508 12.872 7.7969 12.26 6.8991-0.61362-0.89603 11.34-21.524 10.726-22.422-0.61206-0.89601 11.342-2.5569 13.794 10.349 2.453 12.906-8.5832 25.043-4.0868 32.199 4.4965 7.1563 20.024-8.8794 19.412-9.7771-0.61359-0.89607 17.982-4.8549 15.326 6.899-2.6571 11.754-5.5182 12.971-6.1302 12.073-0.61362-0.89607 0.10425 8.3666-4.5977 15.523-4.7019 7.1564 20.535 2.6226 19.923 1.7248-0.61365-0.89601 17.472 3.769 10.728 12.073-6.7438 8.3045-8.0708 6.6419-10.728 17.248-2.657 10.606 6.7423 14.696 6.1302 13.798-0.61371-0.89601 17.472 0.89781 13.793 0-3.6803-0.89601 23.605 5.4937 10.728 13.798-12.877 8.3044-10.116 11.246-10.728 10.349-0.61371-0.89603-1.4282-1.407-9.1954 10.349-7.767 11.756 6.7408 0.89087 15.326 13.798 8.5846 12.907-7.0507 12.971-7.6629 12.073-0.61359-0.89603-3.984 11.818-4.5976 15.523-0.61365 3.7051 17.47 12.971 16.858 12.073-0.61352-0.89603 8.2764 10.67 4.5977 12.074-3.6803 1.4035-14.201 2.619-16.858 8.6238s5.7222 18.146 0 17.248c-5.7236-0.89603-14.71 3.7707-18.391 5.1744-3.6788 1.4053-3.9856-38.772-4.5977-39.67-0.61362-0.89603-7.0506-31.873-7.6628-32.771-0.61359-0.89606-8.5832-31.873-9.1952-32.771-0.61362-0.89609-11.648-24.974-12.262-25.872-0.61209-0.89601-16.244-24.974-16.856-25.872-0.61365-0.89607-19.311-24.974-19.923-25.872-0.61368-0.89603-16.246-12.9-16.858-13.798-0.61365-0.89603-5.0042-3.1266-13.181-4.2765z"/>
   </g>
   <path d="m46.946 273.97c4.6023-13.812 26.08-51.795 26.08-51.795l49.091-43.162 67.5-41.436s42.954-12.086 50.625-10.359c7.6704 1.7265 65.966 8.6325 65.966 8.6325l70.568 18.992 61.363 25.898s32.216 34.53 32.216 34.53 27.614 51.795 27.614 51.795 15.341 70.786 15.341 63.88-3.0682 79.419-3.0682 79.419 4.6023 24.171-7.6704 27.624-39.886 5.1795-39.886 5.1795l-53.693-15.538-99.716-24.171-116.59-29.35-113.52-41.436-35.284-25.898s-1.5341-18.992 3.0682-32.804z"/>
  </g>
  <g stroke-dasharray="null" stroke-linecap="null" stroke-linejoin="null">
   <g stroke-width="0">
    <ellipse cx="104.23" cy="258.66" rx="13.793" ry="18.973"/>
    <ellipse cx="111.9" cy="282.81" rx="6.1302" ry="6.8991"/>
    <ellipse cx="308.06" cy="174.15" rx="9.1953" ry="13.798"/>
    <ellipse cx="321.86" cy="186.22" rx="6.1302" ry="6.8991"/>
    <ellipse cx="369.36" cy="396.64" rx="10.728" ry="10.349"/>
    <ellipse cx="384.69" cy="384.57" rx="6.1302" ry="5.1743"/>
    <ellipse cx="468.98" cy="344.9" rx="16.858" ry="22.422"/>
    <ellipse cx="476.64" cy="381.12" rx="7.6628" ry="10.349"/>
    <ellipse cx="455.19" cy="373.36" rx="6.1302" ry="7.7615"/>
   </g>
   <path d="m215.99 131.57c-3.0651-1.7248-1.5341-18.983-1.8409-19.432-0.30684-0.44884 13.34-12.493 13.034-12.942-0.30684-0.4489 20.239-1.2776 19.932-1.7248-0.3053-0.44891-2.7568-11.631 3.3734-11.631s16.87 6.0359 22.694-1.3122c5.8234-7.3473 11.806-16.807 11.806-16.807s9.967-0.86363 14.259-3.0371c4.2908-2.1735 10.274 14.254 9.9669 13.805-0.30679-0.44871 7.9757 12.529 12.266 12.08 4.2908-0.44891 14.108-9.906 13.801-10.355-0.30682-0.44875 11.806 9.9403 11.806 9.9403s6.1363 8.6273 10.427 8.1784c4.2908-0.4489 12.572-7.3169 12.572-7.3169s2.3042-6.9026 8.4344-8.6275c6.1302-1.7248 8.4329 12.079 8.1262 11.632-0.30685-0.44891 14.106 0.44715 13.801 0-0.30682-0.44891 17.172 1.3156 15.333 9.4906-1.8393 8.1749-2.7614 11.664-3.0667 11.217-0.30673-0.44886-10.427 9.0762-10.734 8.6273-0.30682-0.4489-17.326-6.4537-17.633-6.9025-0.30682-0.4489-12.727 9.0762-13.034 8.629-0.30673-0.44891-8.126 10.801-8.4328 10.354-0.30682-0.4489-5.0609 9.0762-5.3663 8.6273-0.30673-0.44891-26.527-4.7289-26.834-5.1778-0.30682-0.44711-24.993-7.3152-25.299-7.7641-0.30685-0.44885-28.827 0.44891-29.134 0-0.30682-0.44885-25.76-2.1408-26.066-2.588-0.30684-0.44885-18.86 3.0369-19.167 2.588-0.30679-0.44885-11.961 2.1737-15.026 0.44891z" stroke="#000" stroke-width="5"/>
  </g>
 </g>
</svg>
